<?xml version="1.0" encoding="UTF-8" standalone="no"?>
<!-- This is a Stata 15.0 generated SVG file (http://www.stata.com) -->

<svg version="1.1" width="5.50in" height="4.00in" viewBox="0 0 3960 2880" xmlns="http://www.w3.org/2000/svg" xmlns:xlink="http://www.w3.org/1999/xlink">
	<desc>Stata Graph - Graph</desc>
	<rect x="0" y="0" width="3960" height="2880" style="fill:#EAF2F3;stroke:none"/>
	<rect x="0.00" y="0.00" width="3959.88" height="2880.00" style="fill:#EAF2F3"/>
	<rect x="2.88" y="2.88" width="3954.12" height="2874.24" style="fill:none;stroke:#EAF2F3;stroke-width:5.76"/>
	<rect x="390.80" y="100.86" width="3468.22" height="2388.33" style="fill:#FFFFFF"/>
	<rect x="393.68" y="103.74" width="3462.46" height="2382.57" style="fill:none;stroke:#FFFFFF;stroke-width:5.76"/>
	<line x1="390.80" y1="2258.26" x2="3859.02" y2="2258.26" style="stroke:#EAF2F3;stroke-width:8.64"/>
	<line x1="390.80" y1="1560.29" x2="3859.02" y2="1560.29" style="stroke:#EAF2F3;stroke-width:8.64"/>
	<line x1="390.80" y1="862.19" x2="3859.02" y2="862.19" style="stroke:#EAF2F3;stroke-width:8.64"/>
	<line x1="390.80" y1="164.22" x2="3859.02" y2="164.22" style="stroke:#EAF2F3;stroke-width:8.64"/>
	<circle cx="787.42" cy="1609.17" r="26.35" style="fill:#FF0000;fill-opacity:0.30"/>
	<circle cx="787.42" cy="1609.17" r="22.03" style="fill:none;stroke:#FF0000;stroke-opacity:0.30;stroke-width:8.64"/>
	<circle cx="1874.81" cy="1316.00" r="26.35" style="fill:#FF0000;fill-opacity:0.30"/>
	<circle cx="1874.81" cy="1316.00" r="22.03" style="fill:none;stroke:#FF0000;stroke-opacity:0.30;stroke-width:8.64"/>
	<circle cx="787.42" cy="1811.63" r="26.35" style="fill:#FF0000;fill-opacity:0.30"/>
	<circle cx="787.42" cy="1811.63" r="22.03" style="fill:none;stroke:#FF0000;stroke-opacity:0.30;stroke-width:8.64"/>
	<circle cx="1382.78" cy="1385.80" r="26.35" style="fill:#FF0000;fill-opacity:0.30"/>
	<circle cx="1382.78" cy="1385.80" r="22.03" style="fill:none;stroke:#FF0000;stroke-opacity:0.30;stroke-width:8.64"/>
	<circle cx="2605.06" cy="806.38" r="26.35" style="fill:#FF0000;fill-opacity:0.30"/>
	<circle cx="2605.06" cy="806.38" r="22.03" style="fill:none;stroke:#FF0000;stroke-opacity:0.30;stroke-width:8.64"/>
	<circle cx="1660.48" cy="1092.62" r="26.35" style="fill:#FF0000;fill-opacity:0.30"/>
	<circle cx="1660.48" cy="1092.62" r="22.03" style="fill:none;stroke:#FF0000;stroke-opacity:0.30;stroke-width:8.64"/>
	<circle cx="2240.00" cy="2097.88" r="26.35" style="fill:#FF0000;fill-opacity:0.30"/>
	<circle cx="2240.00" cy="2097.88" r="22.03" style="fill:none;stroke:#FF0000;stroke-opacity:0.30;stroke-width:8.64"/>
	<circle cx="1382.78" cy="1364.88" r="26.35" style="fill:#FF0000;fill-opacity:0.30"/>
	<circle cx="1382.78" cy="1364.88" r="22.03" style="fill:none;stroke:#FF0000;stroke-opacity:0.30;stroke-width:8.64"/>
	<circle cx="1660.48" cy="946.10" r="26.35" style="fill:#FF0000;fill-opacity:0.30"/>
	<circle cx="1660.48" cy="946.10" r="22.03" style="fill:none;stroke:#FF0000;stroke-opacity:0.30;stroke-width:8.64"/>
	<circle cx="1660.48" cy="1281.10" r="26.35" style="fill:#FF0000;fill-opacity:0.30"/>
	<circle cx="1660.48" cy="1281.10" r="22.03" style="fill:none;stroke:#FF0000;stroke-opacity:0.30;stroke-width:8.64"/>
	<circle cx="3200.42" cy="631.89" r="26.35" style="fill:#FF0000;fill-opacity:0.30"/>
	<circle cx="3200.42" cy="631.89" r="22.03" style="fill:none;stroke:#FF0000;stroke-opacity:0.30;stroke-width:8.64"/>
	<circle cx="2605.06" cy="932.11" r="26.35" style="fill:#FF0000;fill-opacity:0.30"/>
	<circle cx="2605.06" cy="932.11" r="22.03" style="fill:none;stroke:#FF0000;stroke-opacity:0.30;stroke-width:8.64"/>
	<circle cx="2605.06" cy="659.86" r="26.35" style="fill:#FF0000;fill-opacity:0.30"/>
	<circle cx="2605.06" cy="659.86" r="22.03" style="fill:none;stroke:#FF0000;stroke-opacity:0.30;stroke-width:8.64"/>
	<circle cx="1660.48" cy="2181.53" r="26.35" style="fill:#FF0000;fill-opacity:0.30"/>
	<circle cx="1660.48" cy="2181.53" r="22.03" style="fill:none;stroke:#FF0000;stroke-opacity:0.30;stroke-width:8.64"/>
	<circle cx="1811.33" cy="1078.64" r="26.35" style="fill:#FF0000;fill-opacity:0.30"/>
	<circle cx="1811.33" cy="1078.64" r="22.03" style="fill:none;stroke:#FF0000;stroke-opacity:0.30;stroke-width:8.64"/>
	<circle cx="1414.46" cy="1434.68" r="26.35" style="fill:#FF0000;fill-opacity:0.30"/>
	<circle cx="1414.46" cy="1434.68" r="22.03" style="fill:none;stroke:#FF0000;stroke-opacity:0.30;stroke-width:8.64"/>
	<circle cx="1414.46" cy="1406.71" r="26.35" style="fill:#FF0000;fill-opacity:0.30"/>
	<circle cx="1414.46" cy="1406.71" r="22.03" style="fill:none;stroke:#FF0000;stroke-opacity:0.30;stroke-width:8.64"/>
	<circle cx="1025.52" cy="1734.78" r="26.35" style="fill:#FF0000;fill-opacity:0.30"/>
	<circle cx="1025.52" cy="1734.78" r="22.03" style="fill:none;stroke:#FF0000;stroke-opacity:0.30;stroke-width:8.64"/>
	<circle cx="1811.33" cy="1260.19" r="26.35" style="fill:#FF0000;fill-opacity:0.30"/>
	<circle cx="1811.33" cy="1260.19" r="22.03" style="fill:none;stroke:#FF0000;stroke-opacity:0.30;stroke-width:8.64"/>
	<circle cx="604.89" cy="2174.60" r="26.35" style="fill:#FF0000;fill-opacity:0.30"/>
	<circle cx="604.89" cy="2174.60" r="22.03" style="fill:none;stroke:#FF0000;stroke-opacity:0.30;stroke-width:8.64"/>
	<circle cx="2351.13" cy="1141.51" r="26.35" style="fill:#FF0000;fill-opacity:0.30"/>
	<circle cx="2351.13" cy="1141.51" r="22.03" style="fill:none;stroke:#FF0000;stroke-opacity:0.30;stroke-width:8.64"/>
	<circle cx="2351.13" cy="1141.51" r="26.35" style="fill:#FF0000;fill-opacity:0.30"/>
	<circle cx="2351.13" cy="1141.51" r="22.03" style="fill:none;stroke:#FF0000;stroke-opacity:0.30;stroke-width:8.64"/>
	<circle cx="1612.96" cy="1043.74" r="26.35" style="fill:#FF0000;fill-opacity:0.30"/>
	<circle cx="1612.96" cy="1043.74" r="22.03" style="fill:none;stroke:#FF0000;stroke-opacity:0.30;stroke-width:8.64"/>
	<circle cx="604.89" cy="2397.98" r="26.35" style="fill:#FF0000;fill-opacity:0.30"/>
	<circle cx="604.89" cy="2397.98" r="22.03" style="fill:none;stroke:#FF0000;stroke-opacity:0.30;stroke-width:8.64"/>
	<circle cx="938.27" cy="1804.70" r="26.35" style="fill:#FF0000;fill-opacity:0.30"/>
	<circle cx="938.27" cy="1804.70" r="22.03" style="fill:none;stroke:#FF0000;stroke-opacity:0.30;stroke-width:8.64"/>
	<circle cx="3001.93" cy="275.97" r="26.35" style="fill:#FF0000;fill-opacity:0.30"/>
	<circle cx="3001.93" cy="275.97" r="22.03" style="fill:none;stroke:#FF0000;stroke-opacity:0.30;stroke-width:8.64"/>
	<circle cx="3001.93" cy="359.63" r="26.35" style="fill:#FF0000;fill-opacity:0.30"/>
	<circle cx="3001.93" cy="359.63" r="22.03" style="fill:none;stroke:#FF0000;stroke-opacity:0.30;stroke-width:8.64"/>
	<circle cx="2224.03" cy="981.00" r="26.35" style="fill:#FF0000;fill-opacity:0.30"/>
	<circle cx="2224.03" cy="981.00" r="22.03" style="fill:none;stroke:#FF0000;stroke-opacity:0.30;stroke-width:8.64"/>
	<circle cx="938.27" cy="1853.46" r="26.35" style="fill:#FF0000;fill-opacity:0.30"/>
	<circle cx="938.27" cy="1853.46" r="22.03" style="fill:none;stroke:#FF0000;stroke-opacity:0.30;stroke-width:8.64"/>
	<circle cx="2224.03" cy="820.36" r="26.35" style="fill:#FF0000;fill-opacity:0.30"/>
	<circle cx="2224.03" cy="820.36" r="22.03" style="fill:none;stroke:#FF0000;stroke-opacity:0.30;stroke-width:8.64"/>
	<circle cx="2224.03" cy="1057.72" r="26.35" style="fill:#FF0000;fill-opacity:0.30"/>
	<circle cx="2224.03" cy="1057.72" r="22.03" style="fill:none;stroke:#FF0000;stroke-opacity:0.30;stroke-width:8.64"/>
	<circle cx="1811.33" cy="1302.01" r="26.35" style="fill:#FF0000;fill-opacity:0.30"/>
	<circle cx="1811.33" cy="1302.01" r="22.03" style="fill:none;stroke:#FF0000;stroke-opacity:0.30;stroke-width:8.64"/>
	<circle cx="2224.03" cy="771.48" r="26.35" style="fill:#FF0000;fill-opacity:0.30"/>
	<circle cx="2224.03" cy="771.48" r="22.03" style="fill:none;stroke:#FF0000;stroke-opacity:0.30;stroke-width:8.64"/>
	<circle cx="938.27" cy="1678.97" r="26.35" style="fill:#FF0000;fill-opacity:0.30"/>
	<circle cx="938.27" cy="1678.97" r="22.03" style="fill:none;stroke:#FF0000;stroke-opacity:0.30;stroke-width:8.64"/>
	<circle cx="2605.06" cy="820.36" r="26.35" style="fill:#FF0000;fill-opacity:0.30"/>
	<circle cx="2605.06" cy="820.36" r="22.03" style="fill:none;stroke:#FF0000;stroke-opacity:0.30;stroke-width:8.64"/>
	<circle cx="1660.48" cy="1343.97" r="26.35" style="fill:#FF0000;fill-opacity:0.30"/>
	<circle cx="1660.48" cy="1343.97" r="22.03" style="fill:none;stroke:#FF0000;stroke-opacity:0.30;stroke-width:8.64"/>
	<circle cx="1660.48" cy="1350.90" r="26.35" style="fill:#FF0000;fill-opacity:0.30"/>
	<circle cx="1660.48" cy="1350.90" r="22.03" style="fill:none;stroke:#FF0000;stroke-opacity:0.30;stroke-width:8.64"/>
	<circle cx="1660.48" cy="1078.64" r="26.35" style="fill:#FF0000;fill-opacity:0.30"/>
	<circle cx="1660.48" cy="1078.64" r="22.03" style="fill:none;stroke:#FF0000;stroke-opacity:0.30;stroke-width:8.64"/>
	<circle cx="1660.48" cy="1302.01" r="26.35" style="fill:#FF0000;fill-opacity:0.30"/>
	<circle cx="1660.48" cy="1302.01" r="22.03" style="fill:none;stroke:#FF0000;stroke-opacity:0.30;stroke-width:8.64"/>
	<circle cx="1025.52" cy="1748.77" r="26.35" style="fill:#FF0000;fill-opacity:0.30"/>
	<circle cx="1025.52" cy="1748.77" r="22.03" style="fill:none;stroke:#FF0000;stroke-opacity:0.30;stroke-width:8.64"/>
	<circle cx="2605.06" cy="841.28" r="26.35" style="fill:#FF0000;fill-opacity:0.30"/>
	<circle cx="2605.06" cy="841.28" r="22.03" style="fill:none;stroke:#FF0000;stroke-opacity:0.30;stroke-width:8.64"/>
	<circle cx="1065.24" cy="1378.87" r="26.35" style="fill:#FF0000;fill-opacity:0.30"/>
	<circle cx="1065.24" cy="1378.87" r="22.03" style="fill:none;stroke:#FF0000;stroke-opacity:0.30;stroke-width:8.64"/>
	<circle cx="509.60" cy="2397.98" r="26.35" style="fill:#FF0000;fill-opacity:0.30"/>
	<circle cx="509.60" cy="2397.98" r="22.03" style="fill:none;stroke:#FF0000;stroke-opacity:0.30;stroke-width:8.64"/>
	<circle cx="660.45" cy="2118.79" r="26.35" style="fill:#FF0000;fill-opacity:0.30"/>
	<circle cx="660.45" cy="2118.79" r="22.03" style="fill:none;stroke:#FF0000;stroke-opacity:0.30;stroke-width:8.64"/>
	<circle cx="771.58" cy="1895.41" r="26.35" style="fill:#FF0000;fill-opacity:0.30"/>
	<circle cx="771.58" cy="1895.41" r="22.03" style="fill:none;stroke:#FF0000;stroke-opacity:0.30;stroke-width:8.64"/>
	<circle cx="1612.96" cy="1329.98" r="26.35" style="fill:#FF0000;fill-opacity:0.30"/>
	<circle cx="1612.96" cy="1329.98" r="22.03" style="fill:none;stroke:#FF0000;stroke-opacity:0.30;stroke-width:8.64"/>
	<circle cx="1660.48" cy="1071.71" r="26.35" style="fill:#FF0000;fill-opacity:0.30"/>
	<circle cx="1660.48" cy="1071.71" r="22.03" style="fill:none;stroke:#FF0000;stroke-opacity:0.30;stroke-width:8.64"/>
	<circle cx="1660.48" cy="1232.22" r="26.35" style="fill:#FF0000;fill-opacity:0.30"/>
	<circle cx="1660.48" cy="1232.22" r="22.03" style="fill:none;stroke:#FF0000;stroke-opacity:0.30;stroke-width:8.64"/>
	<circle cx="1660.48" cy="1413.76" r="26.35" style="fill:#FF0000;fill-opacity:0.30"/>
	<circle cx="1660.48" cy="1413.76" r="22.03" style="fill:none;stroke:#FF0000;stroke-opacity:0.30;stroke-width:8.64"/>
	<circle cx="1660.48" cy="1420.69" r="26.35" style="fill:#FF0000;fill-opacity:0.30"/>
	<circle cx="1660.48" cy="1420.69" r="22.03" style="fill:none;stroke:#FF0000;stroke-opacity:0.30;stroke-width:8.64"/>
	<circle cx="1660.48" cy="1267.12" r="26.35" style="fill:#FF0000;fill-opacity:0.30"/>
	<circle cx="1660.48" cy="1267.12" r="22.03" style="fill:none;stroke:#FF0000;stroke-opacity:0.30;stroke-width:8.64"/>
	<circle cx="1025.52" cy="1776.73" r="26.35" style="fill:#FF0000;fill-opacity:0.30"/>
	<circle cx="1025.52" cy="1776.73" r="22.03" style="fill:none;stroke:#FF0000;stroke-opacity:0.30;stroke-width:8.64"/>
	<circle cx="866.87" cy="1678.97" r="26.35" style="fill:#FF0000;fill-opacity:0.30"/>
	<circle cx="866.87" cy="1678.97" r="22.03" style="fill:none;stroke:#FF0000;stroke-opacity:0.30;stroke-width:8.64"/>
	<circle cx="596.97" cy="2209.50" r="26.35" style="fill:#FF0000;fill-opacity:0.30"/>
	<circle cx="596.97" cy="2209.50" r="22.03" style="fill:none;stroke:#FF0000;stroke-opacity:0.30;stroke-width:8.64"/>
	<circle cx="787.42" cy="1804.70" r="26.35" style="fill:#FF0000;fill-opacity:0.30"/>
	<circle cx="787.42" cy="1804.70" r="22.03" style="fill:none;stroke:#FF0000;stroke-opacity:0.30;stroke-width:8.64"/>
	<circle cx="771.58" cy="2000.11" r="26.35" style="fill:#FF0000;fill-opacity:0.30"/>
	<circle cx="771.58" cy="2000.11" r="22.03" style="fill:none;stroke:#FF0000;stroke-opacity:0.30;stroke-width:8.64"/>
	<circle cx="501.68" cy="2244.40" r="26.35" style="fill:#FF0000;fill-opacity:0.30"/>
	<circle cx="501.68" cy="2244.40" r="22.03" style="fill:none;stroke:#FF0000;stroke-opacity:0.30;stroke-width:8.64"/>
	<circle cx="771.58" cy="2062.98" r="26.35" style="fill:#FF0000;fill-opacity:0.30"/>
	<circle cx="771.58" cy="2062.98" r="22.03" style="fill:none;stroke:#FF0000;stroke-opacity:0.30;stroke-width:8.64"/>
	<circle cx="985.92" cy="1734.78" r="26.35" style="fill:#FF0000;fill-opacity:0.30"/>
	<circle cx="985.92" cy="1734.78" r="22.03" style="fill:none;stroke:#FF0000;stroke-opacity:0.30;stroke-width:8.64"/>
	<circle cx="660.45" cy="2167.67" r="26.35" style="fill:#FF0000;fill-opacity:0.30"/>
	<circle cx="660.45" cy="2167.67" r="22.03" style="fill:none;stroke:#FF0000;stroke-opacity:0.30;stroke-width:8.64"/>
	<circle cx="676.29" cy="2090.82" r="26.35" style="fill:#FF0000;fill-opacity:0.30"/>
	<circle cx="676.29" cy="2090.82" r="22.03" style="fill:none;stroke:#FF0000;stroke-opacity:0.30;stroke-width:8.64"/>
	<circle cx="549.33" cy="2425.95" r="26.35" style="fill:#FF0000;fill-opacity:0.30"/>
	<circle cx="549.33" cy="2425.95" r="22.03" style="fill:none;stroke:#FF0000;stroke-opacity:0.30;stroke-width:8.64"/>
	<circle cx="509.60" cy="2272.37" r="26.35" style="fill:#FF0000;fill-opacity:0.30"/>
	<circle cx="509.60" cy="2272.37" r="22.03" style="fill:none;stroke:#FF0000;stroke-opacity:0.30;stroke-width:8.64"/>
	<circle cx="1120.80" cy="1267.12" r="26.35" style="fill:#FF0000;fill-opacity:0.30"/>
	<circle cx="1120.80" cy="1267.12" r="22.03" style="fill:none;stroke:#FF0000;stroke-opacity:0.30;stroke-width:8.64"/>
	<circle cx="454.04" cy="2377.06" r="26.35" style="fill:#FF0000;fill-opacity:0.30"/>
	<circle cx="454.04" cy="2377.06" r="22.03" style="fill:none;stroke:#FF0000;stroke-opacity:0.30;stroke-width:8.64"/>
	<circle cx="596.97" cy="2223.49" r="26.35" style="fill:#FF0000;fill-opacity:0.30"/>
	<circle cx="596.97" cy="2223.49" r="22.03" style="fill:none;stroke:#FF0000;stroke-opacity:0.30;stroke-width:8.64"/>
	<circle cx="890.63" cy="1972.14" r="26.35" style="fill:#FF0000;fill-opacity:0.30"/>
	<circle cx="890.63" cy="1972.14" r="22.03" style="fill:none;stroke:#FF0000;stroke-opacity:0.30;stroke-width:8.64"/>
	<circle cx="596.97" cy="2118.79" r="26.35" style="fill:#FF0000;fill-opacity:0.30"/>
	<circle cx="596.97" cy="2118.79" r="22.03" style="fill:none;stroke:#FF0000;stroke-opacity:0.30;stroke-width:8.64"/>
	<circle cx="890.63" cy="1790.72" r="26.35" style="fill:#FF0000;fill-opacity:0.30"/>
	<circle cx="890.63" cy="1790.72" r="22.03" style="fill:none;stroke:#FF0000;stroke-opacity:0.30;stroke-width:8.64"/>
	<circle cx="596.97" cy="2146.63" r="26.35" style="fill:#FF0000;fill-opacity:0.30"/>
	<circle cx="596.97" cy="2146.63" r="22.03" style="fill:none;stroke:#FF0000;stroke-opacity:0.30;stroke-width:8.64"/>
	<circle cx="541.41" cy="2230.42" r="26.35" style="fill:#FF0000;fill-opacity:0.30"/>
	<circle cx="541.41" cy="2230.42" r="22.03" style="fill:none;stroke:#FF0000;stroke-opacity:0.30;stroke-width:8.64"/>
	<circle cx="533.49" cy="2307.27" r="26.35" style="fill:#FF0000;fill-opacity:0.30"/>
	<circle cx="533.49" cy="2307.27" r="22.03" style="fill:none;stroke:#FF0000;stroke-opacity:0.30;stroke-width:8.64"/>
	<circle cx="596.97" cy="2265.31" r="26.35" style="fill:#FF0000;fill-opacity:0.30"/>
	<circle cx="596.97" cy="2265.31" r="22.03" style="fill:none;stroke:#FF0000;stroke-opacity:0.30;stroke-width:8.64"/>
	<circle cx="1120.80" cy="1441.61" r="26.35" style="fill:#FF0000;fill-opacity:0.30"/>
	<circle cx="1120.80" cy="1441.61" r="22.03" style="fill:none;stroke:#FF0000;stroke-opacity:0.30;stroke-width:8.64"/>
	<line x1="390.80" y1="2489.19" x2="390.80" y2="100.86" style="stroke:#000000;stroke-width:5.76"/>
	<line x1="390.80" y1="2258.26" x2="350.83" y2="2258.26" style="stroke:#000000;stroke-width:5.76"/>
	<text x="300.72" y="2258.26" style="font-family:'Helvetica';font-size:99.99px;fill:#000000" transform="rotate(-90 300.72,2258.26)" text-anchor="middle">2,000</text>
	<line x1="390.80" y1="1560.29" x2="350.83" y2="1560.29" style="stroke:#000000;stroke-width:5.76"/>
	<text x="300.72" y="1560.29" style="font-family:'Helvetica';font-size:99.99px;fill:#000000" transform="rotate(-90 300.72,1560.29)" text-anchor="middle">3,000</text>
	<line x1="390.80" y1="862.19" x2="350.83" y2="862.19" style="stroke:#000000;stroke-width:5.76"/>
	<text x="300.72" y="862.19" style="font-family:'Helvetica';font-size:99.99px;fill:#000000" transform="rotate(-90 300.72,862.19)" text-anchor="middle">4,000</text>
	<line x1="390.80" y1="164.22" x2="350.83" y2="164.22" style="stroke:#000000;stroke-width:5.76"/>
	<text x="300.72" y="164.22" style="font-family:'Helvetica';font-size:99.99px;fill:#000000" transform="rotate(-90 300.72,164.22)" text-anchor="middle">5,000</text>
	<text x="190.71" y="1294.96" style="font-family:'Helvetica';font-size:99.99px;fill:#000000" transform="rotate(-90 190.71,1294.96)" text-anchor="middle">Weight (lbs.)</text>
	<line x1="390.80" y1="2489.19" x2="3859.02" y2="2489.19" style="stroke:#000000;stroke-width:5.76"/>
	<line x1="620.85" y1="2489.19" x2="620.85" y2="2529.16" style="stroke:#000000;stroke-width:5.76"/>
	<text x="620.85" y="2619.14" style="font-family:'Helvetica';font-size:99.99px;fill:#000000" text-anchor="middle">100</text>
	<line x1="1414.59" y1="2489.19" x2="1414.59" y2="2529.16" style="stroke:#000000;stroke-width:5.76"/>
	<text x="1414.59" y="2619.14" style="font-family:'Helvetica';font-size:99.99px;fill:#000000" text-anchor="middle">200</text>
	<line x1="2208.32" y1="2489.19" x2="2208.32" y2="2529.16" style="stroke:#000000;stroke-width:5.76"/>
	<text x="2208.32" y="2619.14" style="font-family:'Helvetica';font-size:99.99px;fill:#000000" text-anchor="middle">300</text>
	<line x1="3002.05" y1="2489.19" x2="3002.05" y2="2529.16" style="stroke:#000000;stroke-width:5.76"/>
	<text x="3002.05" y="2619.14" style="font-family:'Helvetica';font-size:99.99px;fill:#000000" text-anchor="middle">400</text>
	<line x1="3795.66" y1="2489.19" x2="3795.66" y2="2529.16" style="stroke:#000000;stroke-width:5.76"/>
	<text x="3795.66" y="2619.14" style="font-family:'Helvetica';font-size:99.99px;fill:#000000" text-anchor="middle">500</text>
	<text x="2124.91" y="2729.16" style="font-family:'Helvetica';font-size:99.99px;fill:#000000" text-anchor="middle">Displacement (cu. in.)</text>
</svg>
